<svg xmlns="http://www.w3.org/2000/svg" width="40" height="42" fill="none">
  <path fill="#000" d="M17.0039 13.5212c.3009.2729.7145.4208 1.1188.4316-.1408-.596-.2262-1.0664-.7583-1.4377l-.8424-.3956c.4596-.5465 1.1454-.902 1.8707-.7354.6075.1401 2.9141 1.6 3.4254 2.0538.731.6485 1.4103 1.7005 1.6782 2.6311-.3347.0819-.5544.4575-.6169.7792.93-.7835 1.6323-1.8657 2.0172-3.0218.6125-1.8376.2901-4.49893-.4424-6.28127-.7324-1.78234-2.9076-3.81888-2.066-6.04788.5968-1.5798366 2.5917-.976628 3.7299-.47467 6.455 2.84585 11.9449 9.90192 13.4824 16.75482.3648 1.6265.5608 3.3148.2312 4.9628-.1321.0209-.0804-.0122-.1077-.0725-.3928-.8646-.6736-1.9863-1.0276-2.9004-.354-.9142-.7116-1.7701-1.1633-2.6103-.0216-.0395-.1199-.2822-.1824-.2313.1364.5077.3224 1.0032.4509 1.5131.5551 2.2103.7246 4.5334.4367 6.7976 1.2437 1.2093.7267 3.5776-.9645 4.0673-2.094 5.9553-7.3333 10.5059-13.5061 11.8208-8.4112 1.7916-16.9602-2.4244-20.62613-10.1476-.23051-.4854-.46533-1.3191-.70877-1.7206-.09335-.1536-.36264-.2441-.51201-.3669-.81218-.6643-1.073567-2.0279-.65707-2.9809.05817-.1328.25924-.3605.26786-.4574.02728-.3081-.13932-1.0204-.15655-1.3917-.09264-1.9877.135-3.9733.62332-5.8942l-1.810348 4.626c-.068938-.2707-.1385947-.5716-.1579835-.8502C-.497071 14.2314 6.00465 5.09424 12.6428 1.62435c1.2409-.648449 3.9324-2.067426 4.8688-.31812 1.1375 2.12416-1.2869 4.50683-2.0129 6.32723-.6448 1.61717-.9766 4.09174-.5249 5.77284.3756 1.3967 1.2208 2.7985 2.3985 3.6487.1752-.2714.3741-.8244.3159-1.1396-.1271-.6844-1.1504-.9364-1.3105-1.7931-.0366-.1954-.0575-1.1296.0912-1.2294l.535.6283Zm-6.9448 9.6837c-.0015-.4201.0136-.8481.0524-1.2661.3605-3.9057.8553-8.2144 2.7123-11.7087.9845-1.85197 2.2498-3.54526 3.2401-5.39151.4158-.77484 1.0542-1.98772.6032-2.84298-.4237-.80356-1.5727-.37126-2.2412-.13859-1.6445.57304-3.2179 1.74068-4.54635 2.84513-2.82431 2.34821-5.40302 5.67805-6.96203 9.00935-.29442.6298-.74396 1.536-.90984 2.1924-.01077.0416-.03447.173.04021.0905.61039-1.1117 1.2768-2.2161 2.04732-3.2243.90266-1.1828 1.95684-2.3044 2.91336-3.44407.22261-.26498.37987-.60105.67286-.79997-.50267 1.05203-1.14322 2.02724-1.55111 3.12594-1.17553 3.1697-1.60712 7.2636-.85239 10.5719.01293.0575 0 .1673.07684.1544.18958-1.4125.50985-2.8602 1.07644-4.17.11992-.2772.64773-1.1684.67143-1.3458.03231-.242-.05817-.8093-.04381-1.1281.10198-2.2979.6901-5.0878 2.09975-6.94551.14074-.18527.29514-.38419.48615-.52135-.19461.49047-.46174.94288-.6585 1.43478-1.42831 3.56538-1.13676 7.05038-.10197 10.67178.2025.7073.67574 2.178 1.05849 2.7647.03231.0495-.00575.0933.11565.0668l.0007-.0007Zm27.963-7.184c-1.0678-3.0763-2.8013-5.882-4.9111-8.34651-1.8786-2.19453-5.1057-5.11507-7.9071-5.9452-.5479-.16229-1.3708-.40644-1.7845.12783-.6247.80715.1164 2.25916.535 3.03399.9953 1.84338 2.2613 3.53452 3.2401 5.39149 1.6904 3.2042 2.1349 6.7028 2.5062 10.2603.0926.8862.2413 1.768.2585 2.6628.2269-.2966.395-.7318.5408-1.0872 1.1317-2.759 1.7026-6.1535 1.3708-9.1207-.1838-1.6466-.782-3.20203-1.4987-4.67773.0661-.06822.3361.30878.3821.36695 1.3299 1.66388 2.0466 4.47668 2.1521 6.58288.0244.4826-.0804 1.2222 0 1.6538.0345.186.3727.6563.4725.871.6557 1.4126 1.0707 2.9859 1.2309 4.532.1551.0251.0833-.0373.1048-.1249.8352-3.434.2334-8.2733-1.2495-11.4711-.3418-.73745-.7935-1.41319-1.1296-2.15212.3189.20969.4833.5709.7246.85096 1.2933 1.50016 2.6505 2.97076 3.7413 4.63176.4223.6427.7763 1.33 1.2187 1.9597h.0021Zm-21.6566 2.8423c.2958-.3469.5644-.7203.7166-1.1554-2.2246-1.605-3.3736-3.8398-3.197-6.6224.0259-.405.1394-.8043.1925-1.20356.0072-.05601.0574-.17808-.0373-.16659-.5393 1.53535-1.0499 3.01245-.8201 4.66985.3396 2.4516 2.7474 3.7341 2.5248 6.6231-.1852 2.3992-1.9151 3.1474-2.7826 5.1251-.0244.056-.1386.2923-.1106.3282.4718-.1271.9623-.1049 1.4463-.1034-.1688.41-1.0786 1.8685-.9731 2.2369.0711.2484 1.2143.7511 1.4901.8394.922.2944 1.6997.2485 2.6046.3935.7461.1192 1.1978.5113 1.6861 1.0535-.1271.0338-.2413-.0639-.3871-.0783-1.373-.1314-2.2448.6786-2.7654 1.8606.7396-.2341 1.531-.6096 2.3195-.4064.0438.0689-.1882 1.1088-.1997 1.3127-.0194.3353.056.6269.0517.9558.1867-.2054.3088-.4603.4898-.6729.051-.0603.4897-.5242.5429-.4646-.1042 1.429.056 2.9608.8531 4.1851.4043-.5601.6125-1.3249.7346-2.0042.1429-.7971.1372-1.5317.0675-2.3367l.1882.1213.8444 1.1706c.1451-.7605.0144-1.5267-.1529-2.2714.7906-.1882 1.5927.1343 2.3238.41-.3368-.9206-1.1174-1.7802-2.1457-1.8599-.2937-.0229-.642-.0416-.8783.1537-.0352.0108-.0373-.0495-.0251-.0768.0395-.0855.5479-.6269.6456-.6987.614-.4503 1.3213-.3347 2.0092-.4201 1.0786-.135 2.2441-.4374 3.0771-1.1648-.2054-.7863-.5867-1.5145-1.0283-2.1881.4804-.0416.9795-.0797 1.447.051.0754-.1027-.4747-1.0944-.5774-1.2574-.9429-1.4987-1.9604-1.8979-2.2512-3.9-.4517-3.1173 2.1873-4.4034 2.5119-7.0734.1321-1.0857-.0869-2.1227-.3928-3.1603-.1099-.3735-.2571-.8366-.4136-1.18923-.0281-.06247-.0259-.15295-.1171-.16732.3009 1.23445.3325 2.54205.0359 3.78375-.4136 1.7335-1.5604 3.1287-2.9593 4.1779-.0531.1192.1659.5845.1637.8086-.0057.6685-1.1604 1.4484-1.61 1.8764-.5666.5393-1.2014 1.1762-1.3694 1.9654l-.1063-.0323c-.3619-.7367-1.1023-1.1008-1.5899-1.7593-.4157-.5616-.7331-1.2258-.7841-1.9296l-1.2919.2578-.0007.0029Zm2.2225-1.1368v.8014c0 .1121.084.5243.1185.6571.1838.7073.8028 1.2775 1.3278 1.7464.3361-.9974 2.2053-1.6416 2.1744-2.7654-.0086-.3167-.1723-.6707-.2039-.9881-.0654-.6635.1888-1.1145.5543-1.638-.4057-.7066-1.0125-1.5683-1.6803-2.043-.2779-.1975-.3318-.3239-.5436.0072-.502.7834-.4496 1.8972-.3002 2.7747-.41-.1443-.9443-.4129-1.3457-.1314-.4015.2815-.4812.8237-.6607 1.2517-.0661.1587-.2219.3439-.2671.4567-.0252.0632.0072.0969.0739.074l.7526-.204v.0007Zm-11.11338.3103c-.2061.2621-.34613.68-.46533 1.0067-.62691 1.7113-.96945 3.5116-1.13605 5.3255-.028.3088.11705.838-.36336.4653-1.35578-1.0527-1.73207-5.5674-1.65523-7.1875.04237-.8926.26354-1.7335.35761-2.5888.00647-.0567.04596-.1867-.04524-.1737-1.52382 3.0656-2.26634 6.5469-1.86061 9.9752 1.54896-.7038 3.02107.4459 3.30185 1.9956.0237.1314-.0316.3296.0316.4337.02082.0345.56874.4998.61685.5221.20322.0948.22692-.0481.40645-.1185 1.2136-.4754 1.46637.2628 2.32594.7957.6463.4007 1.0413.056 1.5597-.3735.9436-.782 1.2905-1.9668 1.9181-2.9923.6829-1.1159 2.0416-2.4839 2.1399-3.8045.0266-.3605.102-.6901-.3346-.7016-.6226-.0165-1.0226.8409-1.3062 1.2818-.0323.0503.005.0926-.1149.0661-.283-.6995-.525-1.4169-.6219-2.1709-1.3378 1.9633-1.3249 4.5169-1.3687 6.8228-.8029-.6111-1.31271-1.6079-1.72419-2.5141-.86029-1.893-1.41036-4.002-1.66169-6.0659v.0008ZM37.4534 24.756c.2039-2.3353-.0108-4.6749-.698-6.9262-.2097-.6865-.4848-1.3507-.7497-2.0157-.092-.0093-.0546.1745-.0503.2312.0309.3936.1271.795.1537 1.1899.135 1.9878-.1365 5.6824-1.3738 7.3089-.0768.1013-.4667.5357-.5895.418-.0862-2.387-.6621-4.7245-1.5519-6.9262-.1005.0209-.0904.1034-.1026.1803-.3153 1.9719-.6923 3.6559-1.4743 5.5035-.4417 1.0427-.9802 2.163-1.8599 2.8954-.1192.051-.0819-.2262-.079-.2865.0697-1.7723-.0273-3.6444-.6686-5.3226-.1587-.4158-.3669-.8969-.6721-1.2136-.0452.777-.3296 1.5124-.6212 2.2226l-.6211-.9544c-1.3702-1.3163-1.4506.0201-.9537 1.1605.3052.7001.9077 1.1504 1.3673 1.7342.8352 1.0606 1.1935 2.397 1.9454 3.4814.2915.42 1.1166 1.2674 1.6487 1.2509.7526-.0237 1.2632-1.2962 2.4157-1.1282.2384.0345.6765.3347.8129.2729.0374-.0165.5774-.507.5946-.5457.0725-.1616.0747-.5321.1336-.7454.3497-1.2732 1.6696-2.229 2.9945-1.786l-.0007.0008Zm-34.4375.6326c-1.19062.1975-1.58773 2.2391-.57089 2.82.63193.3612 1.35793.382 1.87497-.1723 1.02474-1.0987.11131-2.8832-1.3048-2.6477h.00072Zm32.6989 2.7087c.4632.4402.9953.4359 1.5691.2363 1.6488-.5738.7353-3.6652-1.1928-2.7956-.991.4474-1.1382 1.8347-.3756 2.5593h-.0007Zm-23.1747-.1364c-.7332.3138-1.3256.8631-1.9783 1.3033-.59895.4043-.95154.7418-1.7077.3411-.44307-.2348-1.29762-1.2538-1.6696-1.2811-.40214-.0294-.83444.5242-.95005.8761.86891-.2736 1.84697-.0502 2.53276.5422.16588.1429.73821.9062.84233.8969.0912-.0079.48326-.2528.62116-.3109.9881-.418 2.0114-.6471 3.0843-.7153-.1279-.1852-.7763-.5149-.8531-.6707-.1329-.27.1113-.9457.0775-.9823l.0007.0007Zm21.2437 1.2394c-.1687-.3475-.5529-.9184-.9938-.8689-.3684.0417-1.1806 1.0082-1.6057 1.2416-.5041.2772-.8186.2657-1.3041-.0093-.2499-.1415-2.3353-1.7249-2.4537-1.6028.0617.2786.2448.6944.1163.9694-.0855.1831-.716.4646-.8402.6836 1.3163.0769 2.5773.4295 3.7428 1.0384.7339-1.1453 1.9525-1.8714 3.3384-1.452ZM12.7469 34.938c-.0804.0711-.5227-.2248-.6161-.2873-.214-.1443-.9881-.8574-1.126-.894-.1694-.0445-.3612.2614-.6879.1759-.58097-.1515-1.26676-.848-1.78236-1.1647-.30807.5759-.92707.5177-1.39384.1529-.11992-.0933-.34397-.4115-.38921-.438-.11059-.0654-.50842-.0496-.74181-.1882-.58813-.349-.71595-1.3802-.41722-1.9575l-1.40677-1.1799c-.25349.1106-.50913.2076-.79422.1989 1.16261 3.1813 3.39018 6.0228 6.13477 8.0019 4.07026 2.9356 9.20036 3.9934 14.12726 2.9306 5.7564-1.2416 10.6021-5.4239 12.7112-10.908l-.5659-.2076-1.3715 1.1662c-.0316.0654.1106.3656.1264.4948.0761.6226-.1688 1.35-.8101 1.5561-.1465.0474-.3784.0431-.4768.092-.0488.0244-.2463.3138-.3662.4093-.4151.3289-1.2115.5206-1.3917-.1242h-.0754c-.3899.2829-1.4542 1.2021-1.9087 1.1855-.1925-.0071-.3217-.1694-.4309-.196-.1558-.0381-1.0901.8014-1.3098.9443-.1666.1084-.362.2564-.5637.237-.1113-.0826 1.4455-1.3644 1.5267-1.5001.0581-.1307-.1185-.4259-.1164-.6032.0043-.3225 1.0664-1.2589 1.2761-1.5914 0-.0474-.6176-.2736-.7246-.308-.764-.2428-1.852-.3562-2.6606-.3893-.8969-.0366-1.7773.1415-2.6613.2586.7526.8524 1.2 2.0688 1.1892 3.2042-.1271.1249-1.141-.4086-1.345-.4905-.3181-.1278-.6549-.2312-.9809-.3368.074.9917.0388 2.2527-.7749 2.9457-.0509-.2744-.2096-.586-.4136-.7756-.0754.5688-.2736 1.1669-.5084 1.689-.1802.4014-.5429 1.0757-.7928 1.4297-.0639.0905-.1436.1645-.224.2399-.7971-.9766-1.3515-2.1665-1.577-3.4096l-.4388.8258c-.7252-.7733-.843-1.9345-.698-2.9449-.3827.1127-.7655.2413-1.136.3878-.209.0826-1.0779.591-1.2186.3899-.005-1.121.4574-2.2893 1.1662-3.1554-.8811-.1342-1.7651-.2972-2.6613-.2585-.5932.0259-1.4183.1106-1.9999.2226-.4776.092-.8697.2909-1.3343.3979l.0259.1544c.3001.3734.7209.7396 1.0068 1.1123.3188.4165.191.5343.0761 1.0054l1.3493 1.1884.1781.3124-.0015-.0007Zm-5.16888-5.2199c-.83515.0043-1.73781 1.0721-1.26889 1.8635.09982.1687.18599.219.39065.2039l.14506-.7598.73318-1.3076Zm25.74338 2.0652c.219.0596.4129-.2118.451-.3978.1759-.8574-.553-1.6193-1.3838-1.6674.4215.629.8753 1.2854.9328 2.0652ZM8.56039 30.3385c-.82223-.2204-1.83835 1.4915-1.08075 1.9332.60824.3547.63984-.9946.7691-1.3415.08473-.2283.23194-.3741.31165-.5924v.0007Zm22.89821 0c.0582.2226.2183.3842.2959.6083.1228.354.1221 1.2746.5292 1.3859.1982.0539.4445-.1745.4697-.3634.0998-.7432-.4783-1.6839-1.2948-1.6308Z"/>
</svg>
