<svg width="140" height="144" viewBox="0 0 140 144" fill="none" xmlns="http://www.w3.org/2000/svg">
<path d="M59.5136 45.6973C60.5667 46.6523 62.0144 47.1701 63.4294 47.2078C62.9368 45.1217 62.6377 43.4754 60.7753 42.176L57.8271 40.7912C59.4357 38.8785 61.8359 37.6344 64.3744 38.2175C66.5007 38.7076 74.5737 43.8173 76.3632 45.4057C78.9218 47.6753 81.2995 51.3574 82.2369 54.6147C81.0657 54.9012 80.2966 56.2157 80.0779 57.3417C83.3328 54.5996 85.7908 50.812 87.138 46.7654C89.2819 40.3337 88.1534 31.0192 85.5898 24.781C83.0261 18.5428 75.4131 11.4149 78.3588 3.61341C80.4474 -1.91601 87.4296 0.195224 91.4132 1.95207C114.006 11.9126 133.221 36.6089 138.602 60.594C139.879 66.2868 140.565 72.1957 139.411 77.9639C138.949 78.0368 139.13 77.9212 139.034 77.71C137.659 74.684 136.677 70.7581 135.437 67.5585C134.198 64.359 132.947 61.3631 131.366 58.4225C131.29 58.2842 130.946 57.4347 130.727 57.6131C131.205 59.3901 131.856 61.1243 132.306 62.9088C134.249 70.645 134.842 78.7757 133.834 86.7004C138.187 90.9329 136.377 99.222 130.458 100.936C123.129 121.779 104.792 137.707 83.187 142.309C53.7479 148.58 23.8262 133.824 10.9955 106.792C10.1887 105.093 9.36683 102.175 8.5148 100.77C8.18806 100.232 7.24555 99.9157 6.72277 99.4859C3.88015 97.161 2.96528 92.3881 4.42303 89.0529C4.62662 88.5879 5.33036 87.7912 5.36052 87.4519C5.45603 86.3736 4.87293 83.8804 4.8126 82.581C4.48838 75.6239 5.28512 68.6745 6.99421 61.9512L0.658006 78.1423C0.416722 77.1948 0.172926 76.1417 0.105065 75.1665C-1.73975 48.183 21.0163 16.2029 44.2499 4.05827C48.593 1.7887 58.0131 -3.17772 61.2905 2.94485C65.2717 10.3794 56.7866 18.7188 54.2455 25.0901C51.9885 30.7503 50.8274 39.4113 52.4083 45.2951C53.7228 50.1836 56.681 55.0897 60.8029 58.0656C61.4162 57.1155 62.1124 55.1802 61.9088 54.0768C61.4639 51.6816 57.8824 50.7994 57.3219 47.801C57.1937 47.1173 57.1208 43.8474 57.6411 43.4981L59.5136 45.6973ZM35.2068 79.59C35.2017 78.1197 35.2545 76.6218 35.3903 75.159C36.652 61.4888 38.3837 46.4085 44.8832 34.1785C48.3291 27.6965 52.7576 21.77 56.2236 15.3081C57.6788 12.5962 59.9132 8.35111 58.3348 5.35769C56.8519 2.54522 52.8305 4.05827 50.4906 4.8726C44.735 6.87827 39.2282 10.965 34.5784 14.8306C24.6934 23.0493 15.6678 34.7038 10.2113 46.3633C9.18084 48.5675 7.60747 51.7394 7.02688 54.0366C6.98918 54.1824 6.90624 54.6423 7.16763 54.3533C9.304 50.4626 11.6364 46.597 14.3332 43.0683C17.4926 38.9288 21.1822 35.0029 24.53 31.0142C25.3091 30.0867 25.8596 28.9105 26.885 28.2143C25.1257 31.8963 22.8837 35.3095 21.4561 39.155C17.3417 50.249 15.8312 64.5777 18.4728 76.1568C18.518 76.3579 18.4728 76.7424 18.7417 76.6972C19.4052 71.7534 20.5262 66.6864 22.5092 62.102C22.929 61.1319 24.7763 58.0128 24.8592 57.392C24.9723 56.545 24.6557 54.5594 24.7059 53.4435C25.0628 45.4007 27.1213 35.6362 32.055 29.1342C32.5476 28.4857 33.088 27.7895 33.7566 27.3095C33.0754 29.0261 32.1405 30.6095 31.4518 32.3312C26.4527 44.81 27.4731 57.0074 31.0949 69.6823C31.8037 72.158 33.46 77.3054 34.7996 79.3588C34.9127 79.5322 34.7795 79.6856 35.2043 79.5926L35.2068 79.59ZM133.077 54.4463C129.34 43.679 123.273 33.8593 115.888 25.2334C109.313 17.5526 98.0184 7.33068 88.2137 4.42522C86.296 3.8572 83.4157 3.00266 81.968 4.8726C79.7814 7.69763 82.3752 12.7797 83.8405 15.4916C87.324 21.9434 91.7551 27.8624 95.1808 34.362C101.097 45.5766 102.653 57.8218 103.952 70.273C104.277 73.3745 104.797 76.4609 104.857 79.5926C105.651 78.5545 106.24 77.0314 106.75 75.7873C110.711 66.131 112.709 54.2503 111.548 43.865C110.904 38.1019 108.811 32.6579 106.302 27.4929C106.534 27.2542 107.479 28.5737 107.64 28.7773C112.294 34.6007 114.803 44.4456 115.172 51.8173C115.258 53.5063 114.891 56.0951 115.172 57.6056C115.293 58.2566 116.477 59.9028 116.826 60.6543C119.121 65.5981 120.573 71.1049 121.134 76.5162C121.677 76.6042 121.425 76.3855 121.501 76.0789C124.424 64.0599 122.318 47.1223 117.128 35.9303C115.931 33.3491 114.35 30.984 113.174 28.3977C114.29 29.1316 114.865 30.3959 115.71 31.3761C120.237 36.6265 124.987 41.7739 128.805 47.5873C130.283 49.8368 131.522 52.2421 133.07 54.4463H133.077ZM57.2792 64.3942C58.3147 63.1803 59.2547 61.8733 59.7875 60.3502C52.0011 54.7328 47.9797 46.9112 48.598 37.1719C48.6885 35.7544 49.0856 34.3569 49.2716 32.9595C49.2967 32.7635 49.4727 32.3362 49.1409 32.3764C47.2534 37.75 45.4663 42.92 46.2706 48.7208C47.4594 57.3015 55.8868 61.7904 55.1076 71.9016C54.4592 80.2988 48.4045 82.9177 45.3683 89.8396C45.2829 90.0356 44.8832 90.8625 44.9813 90.9882C46.6325 90.5433 48.3492 90.6212 50.0432 90.6263C49.4525 92.0614 46.2681 97.166 46.6376 98.4554C46.8864 99.325 50.8877 101.084 51.8528 101.394C55.08 102.424 57.802 102.263 60.9688 102.771C63.5802 103.188 65.1611 104.56 66.8702 106.458C66.4253 106.576 66.0257 106.234 65.5155 106.184C60.7099 105.724 57.6587 108.559 55.8365 112.696C58.4253 111.877 61.195 110.562 63.9547 111.274C64.108 111.515 63.2962 115.154 63.256 115.868C63.1881 117.042 63.452 118.062 63.4369 119.213C64.0904 118.494 64.5177 117.602 65.1511 116.858C65.3295 116.647 66.8652 115.024 67.0512 115.232C66.6867 120.234 67.2472 125.595 70.037 129.88C71.4521 127.92 72.1809 125.243 72.6082 122.865C73.1084 120.075 73.0883 117.504 72.8445 114.687L73.503 115.111L76.4587 119.208C76.9664 116.547 76.509 113.865 75.9233 111.258C78.6906 110.6 81.498 111.729 84.0566 112.694C82.8778 109.471 80.1458 106.463 76.5467 106.184C75.5187 106.104 74.2997 106.038 73.4728 106.722C73.3497 106.76 73.3421 106.548 73.3848 106.453C73.5231 106.154 75.3026 104.259 75.6444 104.007C77.7933 102.432 80.269 102.836 82.6768 102.537C86.4519 102.065 90.5311 101.006 93.4466 98.4604C92.7277 95.7083 91.3931 93.1597 89.8474 90.8022C91.5289 90.6564 93.2757 90.5232 94.9119 90.9806C95.1758 90.6212 93.2505 87.1503 92.8911 86.5797C89.591 81.3343 86.0296 79.9369 85.0117 72.9296C83.4308 62.0191 92.6674 57.5176 93.8035 48.1729C94.2659 44.3727 93.4993 40.7434 92.4286 37.1116C92.0441 35.8046 91.5289 34.1835 90.9809 32.9495C90.8829 32.7308 90.8905 32.4141 90.5713 32.3638C91.6244 36.6843 91.735 41.2612 90.6969 45.6068C89.2492 51.6741 85.2354 56.5575 80.3393 60.2296C80.1534 60.6468 80.9199 62.2754 80.9124 63.0596C80.8923 65.3996 76.8508 68.1291 75.2774 69.6271C73.2944 71.5146 71.0725 73.7439 70.4844 76.5061L70.1124 76.393C68.8457 73.8143 66.2544 72.54 64.5478 70.2353C63.0926 68.2698 61.9817 65.945 61.8032 63.4819L57.2817 64.3842L57.2792 64.3942ZM65.0581 60.4156V63.2205C65.0581 63.6126 65.3521 65.0552 65.4728 65.5202C66.1162 67.9959 68.2827 69.9915 70.12 71.6327C71.2962 68.1416 77.8385 65.8872 77.7305 61.9537C77.7003 60.8453 77.1273 59.6062 77.0167 58.4953C76.7879 56.173 77.6777 54.5946 78.957 52.7623C77.5369 50.2892 75.4131 47.2731 73.0757 45.6118C72.103 44.9206 71.9145 44.4783 71.1731 45.6369C69.4162 48.379 69.5997 52.2773 70.1225 55.3486C68.6874 54.8434 66.8174 53.9034 65.4124 54.8887C64.0075 55.8739 63.7285 57.7715 63.1001 59.2695C62.8689 59.8249 62.3235 60.4734 62.1652 60.868C62.0772 61.0891 62.1903 61.2073 62.424 61.1268L65.0581 60.413V60.4156ZM26.1612 61.5013C25.4398 62.4187 24.9497 63.8815 24.5325 65.0251C22.3383 71.0144 21.1395 77.3154 20.5563 83.6642C20.4583 84.745 20.966 86.5973 19.2846 85.2929C14.5393 81.6083 13.2223 65.8067 13.4913 60.1366C13.6396 57.0125 14.4137 54.0693 14.7429 51.0759C14.7655 50.8773 14.9038 50.4224 14.5846 50.4676C9.25121 61.1972 6.65239 73.382 8.07244 85.3808C13.4938 82.9177 18.6462 86.9417 19.6289 92.3655C19.7119 92.8254 19.5183 93.5191 19.7395 93.8836C19.8124 94.0042 21.7301 95.6329 21.8985 95.7108C22.6098 96.0426 22.6927 95.5424 23.3211 95.2961C27.5686 93.6322 28.4534 96.216 31.4619 98.0809C33.7239 99.4834 35.1062 98.2769 36.9209 96.774C40.2235 94.0369 41.4374 89.8898 43.6341 86.3007C46.0243 82.395 50.7796 77.607 51.1239 72.9849C51.2169 71.7232 51.4808 70.5696 49.9527 70.5294C47.7736 70.4715 46.3737 73.4725 45.3809 75.0157C45.2678 75.1917 45.3985 75.3399 44.9788 75.2469C43.9885 72.7989 43.1415 70.2881 42.8022 67.649C38.1198 74.5206 38.165 83.4581 38.0117 91.5286C35.2017 89.3897 33.4173 85.9011 31.9771 82.7292C28.9661 76.104 27.0408 68.7222 26.1612 61.4988V61.5013ZM131.087 85.0189C131.801 76.8455 131.049 68.6569 128.644 60.7775C127.91 58.3747 126.947 56.0498 126.02 53.7225C125.698 53.6898 125.829 54.3332 125.844 54.5318C125.952 55.9091 126.289 57.3141 126.382 58.6964C126.854 65.6534 125.904 78.5847 121.574 84.2775C121.305 84.6319 119.94 86.1525 119.51 85.7403C119.209 77.3858 117.193 69.2048 114.079 61.4988C113.727 61.5717 113.762 61.8607 113.719 62.1297C112.616 69.0314 111.297 74.9252 108.559 81.3921C107.014 85.0415 105.129 88.9624 102.05 91.526C101.633 91.7045 101.763 90.7343 101.773 90.5232C102.017 84.3202 101.678 77.7679 99.4334 71.8941C98.878 70.4389 98.1491 68.7549 97.0809 67.6465C96.9226 70.366 95.9273 72.9397 94.9068 75.4254L92.7328 72.0851C87.9373 67.4781 87.6558 72.1555 89.395 76.1467C90.4632 78.5973 92.5719 80.1731 94.1805 82.2165C97.1035 85.9288 98.3577 90.6061 100.989 94.4013C102.01 95.8717 104.897 98.8374 106.76 98.7796C109.394 98.6967 111.181 94.243 115.215 94.8311C116.049 94.9518 117.582 96.0023 118.06 95.7862C118.191 95.7284 120.081 94.0118 120.141 93.876C120.395 93.3105 120.402 92.0136 120.609 91.2672C121.833 86.811 126.452 83.4657 131.089 85.0164L131.087 85.0189ZM10.5557 87.2332C6.38849 87.9244 4.99859 95.0699 8.55752 97.1032C10.7693 98.3674 13.3103 98.4403 15.1199 96.5C18.7065 92.6545 15.5095 86.4088 10.5531 87.2332H10.5557ZM125.002 96.7136C126.623 98.2543 128.485 98.2392 130.494 97.5405C136.264 95.5323 133.067 84.7123 126.319 87.756C122.85 89.3218 122.335 94.1776 125.004 96.7136H125.002ZM43.8905 96.2361C41.3243 97.3344 39.2508 99.2572 36.9661 100.798C34.87 102.213 33.6359 103.394 30.9893 101.992C29.4386 101.17 26.4477 97.6034 25.1458 97.5079C23.7383 97.4048 22.2252 99.3426 21.8206 100.574C24.8617 99.6166 28.285 100.398 30.6852 102.472C31.2658 102.972 33.269 105.644 33.6334 105.611C33.9526 105.583 35.3249 104.726 35.8075 104.523C39.2659 103.06 42.8474 102.258 46.6024 102.019C46.155 101.371 43.8854 100.217 43.6165 99.6719C43.1515 98.7268 44.0061 96.3618 43.888 96.2336L43.8905 96.2361ZM118.243 100.574C117.653 99.3577 116.308 97.3596 114.765 97.533C113.476 97.6788 110.633 101.062 109.145 101.879C107.381 102.849 106.28 102.809 104.581 101.846C103.706 101.351 96.4073 95.8088 95.9926 96.2361C96.2088 97.2113 96.8497 98.6665 96.3998 99.6291C96.1007 100.27 93.8939 101.255 93.4591 102.022C98.0661 102.291 102.48 103.525 106.559 105.656C109.127 101.647 113.393 99.1064 118.243 100.574ZM44.6143 120.656C44.3328 120.905 42.7846 119.869 42.4578 119.651C41.7089 119.145 38.9994 116.65 38.5169 116.521C37.9237 116.366 37.2527 117.436 36.1091 117.137C34.0758 116.607 31.6755 114.169 29.8709 113.061C28.7927 115.076 26.6261 114.873 24.9924 113.596C24.5727 113.269 23.7885 112.156 23.6302 112.063C23.2431 111.834 21.8507 111.889 21.0339 111.404C18.9754 110.183 18.5281 106.574 19.5736 104.553L14.6499 100.423C13.7627 100.81 12.868 101.15 11.8701 101.12C15.9393 112.254 23.7358 122.199 33.3419 129.126C47.5876 139.401 65.5431 143.103 82.7874 139.383C102.935 135.037 119.895 120.4 127.277 101.205L125.296 100.479L120.495 104.56C120.385 104.789 120.882 105.84 120.938 106.292C121.204 108.471 120.347 111.017 118.103 111.739C117.59 111.904 116.778 111.889 116.434 112.06C116.263 112.146 115.572 113.159 115.152 113.493C113.699 114.644 110.912 115.315 110.281 113.058H110.017C108.652 114.048 104.928 117.265 103.337 117.208C102.663 117.183 102.211 116.614 101.829 116.521C101.283 116.388 98.0134 119.326 97.2443 119.827C96.6612 120.206 95.9775 120.724 95.2713 120.656C94.8817 120.367 100.331 115.881 100.615 115.406C100.818 114.948 100.2 113.915 100.208 113.294C100.223 112.166 103.94 108.888 104.674 107.725C104.674 107.559 102.512 106.767 102.138 106.646C99.4636 105.797 95.6558 105.4 92.8258 105.284C89.6866 105.156 86.6052 105.779 83.5112 106.189C86.1452 109.172 87.7111 113.43 87.6733 117.404C87.2285 117.841 83.6796 115.974 82.9658 115.687C81.8524 115.24 80.6736 114.878 79.5326 114.508C79.7914 117.979 79.6683 122.393 76.8206 124.818C76.6422 123.858 76.0867 122.767 75.3729 122.104C75.109 124.094 74.4153 126.188 73.5935 128.015C72.9626 129.42 71.6934 131.78 70.8187 133.019C70.595 133.336 70.316 133.595 70.0345 133.859C67.2447 130.441 65.3044 126.276 64.5152 121.925L62.9795 124.816C60.441 122.109 60.0288 118.045 60.5365 114.508C59.1969 114.903 57.8573 115.353 56.5604 115.866C55.829 116.155 52.7878 117.934 52.2952 117.23C52.2776 113.307 53.8962 109.218 56.3769 106.187C53.293 105.717 50.199 105.146 47.0623 105.282C44.9863 105.372 42.0984 105.669 40.0626 106.061C38.3912 106.383 37.0189 107.079 35.3928 107.453L35.4832 107.994C36.5338 109.301 38.0067 110.582 39.007 111.887C40.1229 113.345 39.6755 113.757 39.2734 115.406L43.996 119.565L44.6193 120.659L44.6143 120.656ZM26.5231 102.386C23.6 102.401 20.4407 106.139 22.082 108.909C22.4313 109.499 22.7329 109.675 23.4492 109.622L23.9569 106.963L26.5231 102.386ZM116.625 109.615C117.391 109.823 118.07 108.873 118.203 108.222C118.819 105.221 116.268 102.555 113.36 102.386C114.835 104.588 116.424 106.885 116.625 109.615ZM29.9614 104.558C27.0836 103.786 23.5272 109.778 26.1788 111.324C28.3076 112.565 28.4182 107.843 28.8706 106.629C29.1672 105.83 29.6824 105.319 29.9614 104.555V104.558ZM110.105 104.558C110.309 105.337 110.869 105.903 111.141 106.687C111.57 107.926 111.568 111.148 112.993 111.537C113.687 111.726 114.549 110.927 114.637 110.266C114.986 107.664 112.963 104.372 110.105 104.558Z" fill="white"/>
</svg>
