<svg xmlns="http://www.w3.org/2000/svg" width="173" height="42" fill="none"><path fill="#000" d="M17.004 13.522c.3.273.714.421 1.119.432-.141-.596-.227-1.067-.759-1.438l-.842-.396c.46-.546 1.145-.901 1.87-.735.608.14 2.915 1.6 3.426 2.054.731.648 1.41 1.7 1.678 2.631-.334.082-.554.457-.617.78.93-.784 1.633-1.867 2.018-3.023.612-1.837.29-4.499-.443-6.28-.732-1.783-2.907-3.82-2.066-6.049.597-1.58 2.592-.976 3.73-.474 6.455 2.845 11.945 9.901 13.482 16.754.365 1.627.561 3.315.232 4.963-.132.021-.08-.012-.108-.072-.393-.865-.674-1.987-1.028-2.9-.354-.915-.711-1.77-1.163-2.611-.022-.04-.12-.282-.182-.231.136.507.322 1.003.45 1.513.556 2.21.725 4.533.437 6.797 1.244 1.21.727 3.578-.964 4.068-2.094 5.955-7.334 10.506-13.506 11.82-8.412 1.792-16.96-2.424-20.626-10.147-.23-.486-.466-1.32-.71-1.72-.093-.154-.362-.245-.511-.368-.812-.664-1.074-2.028-.657-2.98.058-.133.259-.361.268-.458.027-.308-.14-1.02-.157-1.392a20.135 20.135 0 0 1 .623-5.894l-1.81 4.626a4.979 4.979 0 0 1-.158-.85c-.527-7.71 5.975-16.847 12.613-20.317 1.24-.648 3.932-2.067 4.869-.318 1.137 2.124-1.287 4.507-2.013 6.327-.645 1.618-.977 4.092-.525 5.773.375 1.397 1.22 2.799 2.398 3.649.175-.271.374-.824.316-1.14-.127-.684-1.15-.936-1.31-1.793-.037-.195-.058-1.13.09-1.23l.536.63Zm-6.945 9.684c-.001-.42.014-.848.053-1.266.36-3.906.855-8.215 2.712-11.709.984-1.852 2.25-3.545 3.24-5.391.416-.775 1.054-1.988.603-2.843-.424-.804-1.573-.372-2.241-.139-1.645.573-3.218 1.74-4.546 2.845-2.825 2.348-5.403 5.678-6.962 9.01-.295.63-.744 1.536-.91 2.192-.011.042-.035.173.04.09.61-1.111 1.277-2.216 2.047-3.224.903-1.183 1.957-2.304 2.914-3.444.222-.265.38-.601.672-.8-.502 1.052-1.143 2.027-1.55 3.126-1.176 3.17-1.608 7.264-.853 10.572.013.057 0 .167.077.154.19-1.412.51-2.86 1.076-4.17.12-.277.648-1.168.672-1.346.032-.241-.059-.809-.044-1.128.102-2.298.69-5.087 2.1-6.945.14-.185.295-.384.486-.521-.195.49-.462.942-.659 1.434-1.428 3.566-1.137 7.05-.102 10.672.203.707.676 2.178 1.059 2.765.032.05-.006.093.115.067l.001-.001Zm27.963-7.184c-1.068-3.076-2.801-5.882-4.911-8.347-1.879-2.194-5.106-5.115-7.907-5.945-.548-.162-1.37-.406-1.785.128-.624.807.117 2.26.535 3.034.996 1.843 2.262 3.535 3.24 5.391 1.69 3.205 2.135 6.703 2.507 10.26.092.887.241 1.769.258 2.664.227-.297.395-.732.541-1.088 1.132-2.759 1.703-6.153 1.37-9.12-.183-1.647-.781-3.202-1.498-4.678.066-.068.336.309.382.367 1.33 1.664 2.047 4.477 2.152 6.583.025.482-.08 1.222 0 1.654.035.186.373.656.473.87a14.421 14.421 0 0 1 1.23 4.533c.156.025.084-.038.105-.125.836-3.434.234-8.274-1.249-11.471-.342-.738-.794-1.414-1.13-2.153.32.21.484.571.725.851 1.293 1.5 2.65 2.971 3.741 4.632.423.643.777 1.33 1.219 1.96h.002Zm-21.656 2.842c.295-.347.564-.72.716-1.155-2.225-1.605-3.373-3.84-3.197-6.623.026-.405.14-.804.193-1.203.007-.056.057-.178-.038-.167-.539 1.536-1.05 3.013-.82 4.67.34 2.452 2.748 3.734 2.525 6.623-.185 2.4-1.915 3.148-2.783 5.125-.024.056-.138.293-.11.328.472-.127.962-.104 1.446-.103-.169.41-1.079 1.868-.973 2.237.071.248 1.214.751 1.49.84.922.294 1.7.248 2.605.393.746.12 1.197.511 1.686 1.053-.127.034-.242-.064-.387-.078-1.373-.131-2.245.679-2.766 1.86.74-.233 1.531-.609 2.32-.406.044.07-.188 1.109-.2 1.313-.02.335.056.627.052.956.186-.206.309-.46.49-.673.05-.06.49-.524.543-.465-.105 1.43.055 2.961.853 4.185.404-.56.612-1.325.734-2.004.143-.797.137-1.532.068-2.337l.188.122.844 1.17c.145-.76.015-1.526-.153-2.271.791-.188 1.593.134 2.324.41-.337-.92-1.117-1.78-2.145-1.86-.294-.023-.642-.041-.879.154-.035.01-.037-.05-.025-.077.04-.085.548-.627.646-.699.614-.45 1.321-.334 2.009-.42 1.079-.135 2.244-.437 3.077-1.165-.205-.786-.587-1.514-1.028-2.188.48-.041.98-.08 1.447.051.075-.102-.475-1.094-.578-1.257-.943-1.499-1.96-1.898-2.25-3.9-.453-3.117 2.186-4.404 2.511-7.074.132-1.085-.087-2.122-.393-3.16-.11-.373-.257-.837-.413-1.19-.029-.062-.026-.152-.117-.166.3 1.234.332 2.542.035 3.783-.413 1.734-1.56 3.13-2.959 4.178-.053.12.166.585.164.809-.006.668-1.16 1.448-1.61 1.876-.567.54-1.202 1.176-1.37 1.966l-.106-.033c-.362-.736-1.102-1.1-1.59-1.759-.416-.562-.733-1.226-.784-1.93l-1.292.258v.003Zm2.222-1.137v.802c0 .112.084.524.118.657.184.707.803 1.277 1.328 1.746.336-.997 2.206-1.641 2.175-2.765-.009-.317-.173-.67-.204-.988-.066-.664.189-1.115.554-1.638-.406-.707-1.012-1.569-1.68-2.043-.278-.198-.332-.324-.544.007-.502.783-.45 1.897-.3 2.775-.41-.145-.944-.413-1.346-.132-.401.282-.48.824-.66 1.252-.067.159-.222.344-.267.457-.026.063.007.097.073.074l.753-.204Zm-11.113.31c-.206.263-.347.68-.466 1.007-.627 1.712-.97 3.512-1.136 5.326-.028.309.117.838-.363.465-1.356-1.053-1.732-5.567-1.655-7.187.042-.893.263-1.734.357-2.59.007-.056.046-.186-.045-.173-1.524 3.066-2.266 6.547-1.86 9.975 1.548-.703 3.02.446 3.301 1.996.024.131-.031.33.032.434.02.034.569.5.617.522.203.095.227-.048.406-.119 1.214-.475 1.467.263 2.326.796.646.4 1.041.056 1.56-.373.943-.782 1.29-1.967 1.918-2.993.683-1.116 2.041-2.484 2.14-3.804.026-.36.102-.69-.335-.702-.622-.017-1.022.841-1.306 1.282-.032.05.005.092-.115.066-.283-.7-.525-1.417-.622-2.17-1.338 1.962-1.325 4.516-1.368 6.822-.803-.611-1.313-1.608-1.725-2.514-.86-1.893-1.41-4.002-1.661-6.066Zm29.978 6.72c.204-2.335-.01-4.675-.698-6.926-.21-.687-.484-1.35-.75-2.016-.091-.01-.054.175-.05.231.031.394.128.795.154 1.19.135 1.988-.136 5.683-1.374 7.31-.077.1-.466.535-.59.417-.085-2.387-.661-4.724-1.551-6.926-.1.02-.09.103-.103.18-.315 1.972-.692 3.656-1.474 5.504-.442 1.042-.98 2.163-1.86 2.895-.12.051-.082-.226-.079-.286.07-1.773-.027-3.645-.668-5.323-.16-.416-.367-.897-.673-1.214-.045.777-.33 1.513-.62 2.223l-.622-.954c-1.37-1.317-1.45.02-.954 1.16.306.7.908 1.15 1.368 1.734.835 1.06 1.193 2.397 1.945 3.482.292.42 1.117 1.267 1.649 1.25.752-.023 1.263-1.296 2.416-1.128.238.035.676.335.812.273.038-.016.578-.507.595-.545.072-.162.075-.533.134-.746.35-1.273 1.67-2.229 2.994-1.786Zm-34.437.633c-1.19.197-1.588 2.239-.571 2.82.632.36 1.358.382 1.875-.173 1.025-1.098.111-2.883-1.305-2.647Zm32.699 2.708c.463.44.995.436 1.569.236 1.649-.573.735-3.665-1.193-2.795-.99.447-1.138 1.835-.376 2.56Zm-23.175-.136c-.733.314-1.325.863-1.978 1.303-.6.404-.952.742-1.708.341-.443-.235-1.298-1.254-1.67-1.28-.402-.03-.834.523-.95.875.87-.273 1.847-.05 2.533.543.166.142.738.906.843.896.09-.008.483-.252.62-.31a9.354 9.354 0 0 1 3.085-.716c-.128-.185-.776-.515-.853-.67-.133-.27.111-.946.077-.983h.001Zm21.244 1.24c-.169-.348-.553-.92-.994-.87-.368.042-1.18 1.009-1.606 1.242-.504.277-.818.266-1.304-.01-.25-.14-2.335-1.724-2.453-1.602.061.279.244.694.116.97-.086.182-.716.464-.84.683a9.198 9.198 0 0 1 3.742 1.038c.734-1.145 1.953-1.871 3.339-1.452Zm-21.037 5.737c-.08.071-.523-.225-.616-.287-.214-.145-.988-.858-1.126-.894-.17-.045-.361.261-.688.176-.581-.152-1.267-.848-1.782-1.165-.309.576-.928.518-1.394.153-.12-.094-.344-.412-.39-.438-.11-.066-.508-.05-.741-.188-.588-.35-.716-1.38-.418-1.958l-1.406-1.18c-.254.11-.51.208-.795.2 1.163 3.18 3.39 6.022 6.135 8.001a17.736 17.736 0 0 0 14.128 2.93c5.756-1.241 10.602-5.423 12.71-10.908l-.565-.207-1.372 1.166c-.031.066.11.366.127.495.076.623-.17 1.35-.81 1.556-.147.047-.379.043-.477.092-.049.025-.247.314-.366.41-.416.328-1.212.52-1.392-.125h-.076c-.39.283-1.454 1.202-1.908 1.186-.193-.008-.322-.17-.431-.196-.156-.038-1.09.801-1.31.944-.166.108-.362.256-.564.237-.11-.083 1.446-1.364 1.527-1.5.058-.13-.118-.426-.116-.603.004-.323 1.066-1.26 1.276-1.592 0-.047-.618-.273-.725-.308-.764-.242-1.852-.356-2.66-.389-.897-.037-1.778.142-2.662.258.753.853 1.2 2.07 1.19 3.205-.128.125-1.142-.409-1.346-.49-.318-.129-.654-.232-.98-.338.074.992.038 2.253-.775 2.946a1.505 1.505 0 0 0-.414-.775c-.075.568-.273 1.166-.508 1.689-.18.401-.543 1.075-.793 1.43-.064.09-.144.164-.224.24a7.578 7.578 0 0 1-1.577-3.41l-.439.825c-.725-.773-.843-1.934-.698-2.945-.383.113-.765.242-1.136.388-.209.083-1.078.591-1.219.39-.005-1.12.458-2.29 1.167-3.155-.881-.134-1.765-.297-2.662-.259-.593.026-1.418.11-2 .223-.477.092-.87.29-1.334.398l.026.154c.3.374.721.74 1.007 1.113.319.416.19.534.076 1.005l1.35 1.188.177.313-.001-.001Zm-5.169-5.22c-.835.004-1.738 1.072-1.269 1.863.1.17.186.22.39.204l.146-.76.733-1.307Zm25.743 2.065c.22.06.413-.211.451-.397.176-.858-.553-1.62-1.383-1.668.421.63.875 1.285.932 2.065ZM8.561 30.34c-.823-.221-1.839 1.491-1.081 1.933.608.354.64-.995.769-1.342.084-.228.232-.374.311-.592Zm22.898 0c.058.222.218.384.296.608.122.354.122 1.274.529 1.386.198.053.444-.175.47-.364.1-.743-.479-1.684-1.295-1.63Z"/><path fill="#27272A" d="M51.386 28V14.59h8.838v1.89H53.51v3.852h6.354v1.89H53.51v3.888h6.714V28h-8.838Zm13.384.216c-.66 0-1.241-.114-1.745-.342a2.877 2.877 0 0 1-1.152-.972c-.276-.42-.414-.912-.414-1.476 0-.528.113-1.002.341-1.422.24-.42.607-.774 1.099-1.062.492-.288 1.11-.492 1.853-.612l3.385-.558v1.602l-2.989.522c-.54.096-.935.27-1.187.522-.252.24-.378.552-.378.936 0 .372.138.678.413.918.288.228.654.342 1.098.342.553 0 1.032-.12 1.44-.36.42-.24.744-.558.972-.954a2.72 2.72 0 0 0 .343-1.35v-2.502c0-.48-.18-.87-.54-1.17-.349-.312-.816-.468-1.404-.468-.54 0-1.014.144-1.422.432-.397.276-.69.636-.883 1.08l-1.692-.846c.18-.48.474-.9.883-1.26a4.39 4.39 0 0 1 1.422-.864 4.996 4.996 0 0 1 1.746-.306c.767 0 1.445.144 2.034.432.6.288 1.062.69 1.386 1.206.335.504.503 1.092.503 1.764V28h-1.944v-1.764l.415.054a3.61 3.61 0 0 1-.882 1.026c-.349.288-.75.51-1.207.666a4.487 4.487 0 0 1-1.493.234Zm12.045 3.744a5.48 5.48 0 0 1-1.962-.342 4.61 4.61 0 0 1-1.548-.954 3.793 3.793 0 0 1-.972-1.404l1.872-.774c.168.456.474.834.918 1.134.456.3 1.014.45 1.674.45.516 0 .978-.102 1.386-.306.408-.192.732-.48.972-.864.24-.372.36-.822.36-1.35v-2.196l.36.414a3.414 3.414 0 0 1-1.404 1.422c-.588.324-1.254.486-1.998.486-.9 0-1.71-.21-2.43-.63a4.634 4.634 0 0 1-1.71-1.728c-.408-.732-.612-1.554-.612-2.466 0-.924.204-1.746.612-2.466.42-.72.984-1.29 1.692-1.71.708-.42 1.518-.63 2.43-.63.744 0 1.404.162 1.98.486a3.744 3.744 0 0 1 1.44 1.368l-.27.504v-2.142h1.926v9.288c0 .84-.204 1.59-.612 2.25a4.21 4.21 0 0 1-1.656 1.584c-.708.384-1.524.576-2.448.576Zm-.108-6.174c.54 0 1.02-.126 1.44-.378.42-.264.75-.612.99-1.044.252-.444.378-.942.378-1.494s-.126-1.05-.378-1.494a2.809 2.809 0 0 0-1.008-1.044 2.616 2.616 0 0 0-1.422-.396c-.552 0-1.044.132-1.476.396-.432.252-.774.6-1.026 1.044-.24.432-.36.93-.36 1.494 0 .54.12 1.032.36 1.476.252.444.594.798 1.026 1.062.432.252.924.378 1.476.378ZM83.767 28V14.374h2.035V28h-2.034Zm8.84.216c-.971 0-1.835-.222-2.591-.666a4.842 4.842 0 0 1-1.746-1.836c-.42-.78-.63-1.65-.63-2.61 0-.984.21-1.854.63-2.61a4.832 4.832 0 0 1 1.728-1.782c.72-.444 1.536-.666 2.448-.666.732 0 1.386.126 1.962.378.576.252 1.062.6 1.458 1.044.396.432.696.93.9 1.494a4.99 4.99 0 0 1 .324 1.8c0 .156-.006.318-.018.486a2.733 2.733 0 0 1-.072.468h-7.758v-1.62h6.606l-.972.738c.12-.588.078-1.11-.126-1.566a2.322 2.322 0 0 0-.9-1.098c-.396-.276-.864-.414-1.404-.414-.54 0-1.02.138-1.44.414-.42.264-.744.648-.972 1.152-.228.492-.318 1.092-.27 1.8-.06.66.03 1.236.27 1.728.252.492.6.876 1.044 1.152a2.93 2.93 0 0 0 1.548.414c.588 0 1.086-.132 1.494-.396.42-.264.75-.606.99-1.026l1.656.81c-.192.456-.492.87-.9 1.242-.396.36-.876.648-1.44.864a5.208 5.208 0 0 1-1.818.306Zm9.524-.216V14.59h5.652c.84 0 1.566.15 2.178.45.612.288 1.08.708 1.404 1.26.324.54.486 1.182.486 1.926 0 .648-.168 1.242-.504 1.782-.324.528-.834.948-1.53 1.26v-.9c.612.24 1.11.546 1.494.918.384.36.66.768.828 1.224.18.456.27.936.27 1.44 0 1.26-.414 2.25-1.242 2.97-.816.72-1.938 1.08-3.366 1.08h-5.67Zm2.124-1.89h3.708c.708 0 1.272-.192 1.692-.576.42-.396.63-.918.63-1.566 0-.66-.21-1.182-.63-1.566-.42-.396-.984-.594-1.692-.594h-3.708v4.302Zm0-6.174h3.582c.576 0 1.038-.162 1.386-.486.348-.336.522-.774.522-1.314s-.174-.96-.522-1.26c-.348-.3-.81-.45-1.386-.45h-3.582v3.51Zm14.695 8.28a5.112 5.112 0 0 1-2.574-.666 5.032 5.032 0 0 1-1.836-1.818c-.456-.768-.684-1.638-.684-2.61 0-.984.228-1.854.684-2.61a4.894 4.894 0 0 1 1.836-1.8c.768-.444 1.626-.666 2.574-.666.96 0 1.818.222 2.574.666a4.762 4.762 0 0 1 1.818 1.8c.456.756.684 1.626.684 2.61s-.228 1.86-.684 2.628a5.032 5.032 0 0 1-1.836 1.818c-.768.432-1.62.648-2.556.648Zm0-1.89c.576 0 1.086-.138 1.53-.414a2.886 2.886 0 0 0 1.044-1.134 3.446 3.446 0 0 0 .396-1.656c0-.612-.132-1.158-.396-1.638-.252-.48-.6-.858-1.044-1.134-.444-.276-.954-.414-1.53-.414-.564 0-1.074.138-1.53.414a3.021 3.021 0 0 0-1.062 1.134c-.252.48-.378 1.026-.378 1.638 0 .612.126 1.164.378 1.656.264.48.618.858 1.062 1.134.456.276.966.414 1.53.414Zm11.616 1.89a5.112 5.112 0 0 1-2.574-.666 5.032 5.032 0 0 1-1.836-1.818c-.456-.768-.684-1.638-.684-2.61 0-.984.228-1.854.684-2.61a4.894 4.894 0 0 1 1.836-1.8c.768-.444 1.626-.666 2.574-.666.96 0 1.818.222 2.574.666a4.762 4.762 0 0 1 1.818 1.8c.456.756.684 1.626.684 2.61s-.228 1.86-.684 2.628a5.032 5.032 0 0 1-1.836 1.818c-.768.432-1.62.648-2.556.648Zm0-1.89c.576 0 1.086-.138 1.53-.414a2.886 2.886 0 0 0 1.044-1.134 3.446 3.446 0 0 0 .396-1.656c0-.612-.132-1.158-.396-1.638-.252-.48-.6-.858-1.044-1.134-.444-.276-.954-.414-1.53-.414-.564 0-1.074.138-1.53.414a3.021 3.021 0 0 0-1.062 1.134c-.252.48-.378 1.026-.378 1.638 0 .612.126 1.164.378 1.656.264.48.618.858 1.062 1.134.456.276.966.414 1.53.414ZM137.484 28V14.374h2.034V23.5l-.792-.198 4.878-5.04h2.538l-3.672 3.906L146.304 28h-2.34l-3.42-5.166 1.206-.162-2.88 3.06.648-1.35V28h-2.034Zm10.069 0v-9.738h2.034V28h-2.034Zm0-11.07v-2.34h2.034v2.34h-2.034ZM151.821 28v-9.738h1.944v1.908l-.234-.252c.24-.612.624-1.074 1.152-1.386.528-.324 1.14-.486 1.836-.486.72 0 1.356.156 1.908.468.552.312.984.744 1.296 1.296.312.552.468 1.188.468 1.908V28h-2.016v-5.742c0-.492-.09-.906-.27-1.242a1.828 1.828 0 0 0-.774-.792 2.147 2.147 0 0 0-1.116-.288c-.42 0-.798.096-1.134.288-.324.18-.576.444-.756.792-.18.348-.27.762-.27 1.242V28h-2.034Zm15.101 3.96a5.48 5.48 0 0 1-1.962-.342 4.61 4.61 0 0 1-1.548-.954 3.793 3.793 0 0 1-.972-1.404l1.872-.774c.168.456.474.834.918 1.134.456.3 1.014.45 1.674.45.516 0 .978-.102 1.386-.306.408-.192.732-.48.972-.864.24-.372.36-.822.36-1.35v-2.196l.36.414a3.414 3.414 0 0 1-1.404 1.422c-.588.324-1.254.486-1.998.486-.9 0-1.71-.21-2.43-.63a4.634 4.634 0 0 1-1.71-1.728c-.408-.732-.612-1.554-.612-2.466 0-.924.204-1.746.612-2.466.42-.72.984-1.29 1.692-1.71.708-.42 1.518-.63 2.43-.63.744 0 1.404.162 1.98.486a3.744 3.744 0 0 1 1.44 1.368l-.27.504v-2.142h1.926v9.288c0 .84-.204 1.59-.612 2.25a4.21 4.21 0 0 1-1.656 1.584c-.708.384-1.524.576-2.448.576Zm-.108-6.174c.54 0 1.02-.126 1.44-.378.42-.264.75-.612.99-1.044.252-.444.378-.942.378-1.494s-.126-1.05-.378-1.494a2.809 2.809 0 0 0-1.008-1.044 2.616 2.616 0 0 0-1.422-.396c-.552 0-1.044.132-1.476.396-.432.252-.774.6-1.026 1.044-.24.432-.36.93-.36 1.494 0 .54.12 1.032.36 1.476.252.444.594.798 1.026 1.062.432.252.924.378 1.476.378Z"/></svg>