<svg xmlns="http://www.w3.org/2000/svg" width="16" height="16" fill="none"><path stroke="#52525B" stroke-linecap="round" stroke-linejoin="round" d="M7.982 13.579c-2.16 0-4.004-.327-4.004-1.635S5.81 9.498 7.982 9.498c2.159 0 4.003 1.128 4.003 2.435 0 1.307-1.832 1.646-4.003 1.646ZM7.982 7.633a2.566 2.566 0 1 0-2.567-2.566 2.558 2.558 0 0 0 2.549 2.566h.018Z" clip-rule="evenodd"/><path stroke="#52525B" stroke-linecap="round" stroke-linejoin="round" d="M12.242 6.928a1.934 1.934 0 0 0-.111-3.762M12.629 9.03c1.17 0 2.168.792 2.168 1.5 0 .417-.345.871-.867.994M3.722 6.928a1.934 1.934 0 0 1 .11-3.762M3.334 9.03c-1.169 0-2.167.792-2.167 1.5 0 .417.344.871.867.994"/></svg>