<svg width="16" height="16" viewBox="0 0 16 16" fill="none" xmlns="http://www.w3.org/2000/svg">
<path d="M3.99984 14.6654C3.64622 14.6654 3.30708 14.5249 3.05703 14.2748C2.80698 14.0248 2.6665 13.6857 2.6665 13.332V2.66537C2.6665 2.31174 2.80698 1.97261 3.05703 1.72256C3.30708 1.47251 3.64622 1.33203 3.99984 1.33203H9.33317C9.54421 1.33169 9.75323 1.3731 9.94819 1.45388C10.1432 1.53466 10.3202 1.65321 10.4692 1.8027L12.8612 4.1947C13.0111 4.3437 13.13 4.52093 13.211 4.71614C13.292 4.91135 13.3335 5.12068 13.3332 5.33203V13.332C13.3332 13.6857 13.1927 14.0248 12.9426 14.2748C12.6926 14.5249 12.3535 14.6654 11.9998 14.6654H3.99984Z" stroke="#52525B" stroke-linecap="round" stroke-linejoin="round"/>
<path d="M9.3335 1.33203V4.66536C9.3335 4.84218 9.40373 5.01174 9.52876 5.13677C9.65378 5.26179 9.82335 5.33203 10.0002 5.33203H13.3335" stroke="#52525B" stroke-linecap="round" stroke-linejoin="round"/>
<path d="M6.66683 6H5.3335" stroke="#52525B" stroke-linecap="round" stroke-linejoin="round"/>
<path d="M10.6668 8.66797H5.3335" stroke="#52525B" stroke-linecap="round" stroke-linejoin="round"/>
<path d="M10.6668 11.332H5.3335" stroke="#52525B" stroke-linecap="round" stroke-linejoin="round"/>
</svg>
