<svg xmlns="http://www.w3.org/2000/svg" width="16" height="16" fill="none"><path stroke="#52525B" stroke-linecap="round" stroke-linejoin="round" d="M14.293 9.33c-1.774 0-1.774-2.743 0-2.743 0-3.178 0-4.313-6.263-4.313S1.767 3.41 1.767 6.587c1.774 0 1.774 2.743 0 2.743 0 3.178 0 4.313 6.263 4.313s6.263-1.135 6.263-4.313Z" clip-rule="evenodd"/><path stroke="#52525B" stroke-linecap="round" stroke-linejoin="round" d="M8.03 6.114c-.456 0-.499.727-.77.984-.27.256-1.113-.037-1.23.418-.117.456.641.611.735 1.002.093.391-.37.94.026 1.215.396.272.822-.346 1.239-.346.416 0 .842.618 1.238.346.396-.275-.067-.824.026-1.215.094-.39.852-.546.736-1.002-.118-.455-.96-.162-1.23-.418-.272-.257-.315-.984-.77-.984Z" clip-rule="evenodd"/></svg>