<svg xmlns="http://www.w3.org/2000/svg" width="16" height="16" fill="none"><path stroke="#52525B" stroke-linecap="round" stroke-linejoin="round" d="M7.974 11.01V9.26M14.06 7.651l-.02.014c-1.614.995-3.746 1.596-6.07 1.596-2.322 0-4.448-.601-6.062-1.596l-.02-.014"/><path stroke="#52525B" stroke-linecap="round" stroke-linejoin="round" d="M1.833 8.9c0-4.101 1.536-5.468 6.141-5.468 4.606 0 6.14 1.367 6.14 5.468 0 4.102-1.534 5.469-6.14 5.469-4.605 0-6.14-1.367-6.14-5.469Z" clip-rule="evenodd"/><path stroke="#52525B" stroke-linecap="round" stroke-linejoin="round" d="M10.15 3.58v-.42c0-.843-.616-1.527-1.374-1.527H7.173c-.758 0-1.374.684-1.374 1.526v.42"/></svg>