<svg xmlns="http://www.w3.org/2000/svg" width="30" height="30" fill="none">
  <rect width="30" height="30" fill="#F4F4F5" rx="4"/>
  <g clip-path="url(#a)">
    <path fill="#27272A" d="M15 6c-4.9705 0-9 4.0295-9 9 0 4.2206 2.90592 7.7623 6.826 8.735v-5.9846h-1.8558V15h1.8558v-1.1851c0-3.0633 1.3863-4.4831 4.3938-4.4831.5702 0 1.5541.11196 1.9566.22356v2.49304c-.2124-.0224-.5814-.0335-1.0397-.0335-1.4757 0-2.0459.5591-2.0459 2.0124V15h2.9398l-.5051 2.7504h-2.4347v6.1837c4.4564-.5382 7.9096-4.3326 7.9096-8.9341C24 10.0295 19.9705 6 15 6Z"/>
  </g>
  <defs>
    <clipPath id="a">
      <path fill="#fff" d="M0 0h18v18H0z" transform="translate(6 6)"/>
    </clipPath>
  </defs>
</svg>
