<svg xmlns="http://www.w3.org/2000/svg" width="30" height="30" fill="none">
  <rect width="30" height="30" fill="#F4F4F5" rx="4"/>
  <g clip-path="url(#a)">
    <path fill="#27272A" d="M15 7.6207c2.4047 0 2.6895.01055 3.6352.05274.8789.03867 1.3535.18633 1.6699.30937.4183.16172.7207.3586 1.0336.67149.3164.3164.5097.61523.6715 1.03359.123.31641.2707.79451.3093 1.66991.0422.9492.0528 1.234.0528 3.6352 0 2.4047-.0106 2.6894-.0528 3.6351-.0386.8789-.1863 1.3535-.3093 1.6699-.1618.4184-.3586.7207-.6715 1.0336-.3164.3164-.6153.5098-1.0336.6715-.3164.1231-.7946.2707-1.6699.3094-.9493.0422-1.234.0527-3.6352.0527-2.4047 0-2.6895-.0105-3.6352-.0527-.8789-.0387-1.3535-.1863-1.66988-.3094-.41836-.1617-.7207-.3586-1.03359-.6715-.31641-.3164-.50977-.6152-.67149-1.0336-.12304-.3164-.2707-.7945-.30937-1.6699-.04219-.9492-.05274-1.234-.05274-3.6351 0-2.4047.01055-2.6895.05274-3.6352.03867-.8789.18633-1.3535.30937-1.66991.16172-.41836.3586-.7207.67149-1.03359.3164-.31641.61523-.50977 1.03359-.67149.31638-.12304.79458-.2707 1.66988-.30937.9457-.04219 1.2305-.05274 3.6352-.05274ZM15 6c-2.4434 0-2.7492.01055-3.709.05273-.9562.04219-1.61366.19688-2.18319.41836-.59414.23203-1.09687.53789-1.59609 1.04063-.50274.49922-.8086 1.00195-1.04063 1.59258-.22148.57304-.37617 1.2269-.41836 2.1832C6.01055 12.2508 6 12.5566 6 15s.01055 2.7492.05273 3.709c.04219.9562.19688 1.6137.41836 2.1832.23203.5941.53789 1.0969 1.04063 1.5961.49922.4992 1.00195.8086 1.59258 1.0371.57304.2215 1.227.3762 2.1832.4183.9598.0422 1.2656.0528 3.709.0528 2.4433 0 2.7492-.0106 3.709-.0528.9562-.0421 1.6136-.1968 2.1832-.4183.5906-.2285 1.0933-.5379 1.5926-1.0371.4992-.4992.8085-1.002 1.0371-1.5926.2214-.573.3761-1.227.4183-2.1832.0422-.9598.0528-1.2656.0528-3.709 0-2.4433-.0106-2.7492-.0528-3.709-.0422-.9562-.1969-1.61364-.4183-2.18317-.2215-.59766-.5274-1.10039-1.0301-1.59961-.4992-.49922-1.002-.8086-1.5926-1.03711-.573-.22149-1.2269-.37617-2.1832-.41836C17.7492 6.01055 17.4434 6 15 6Z"/>
    <path fill="#000" d="M15 10.377c-2.5523 0-4.623 2.0707-4.623 4.623 0 2.5523 2.0707 4.623 4.623 4.623 2.5523 0 4.623-2.0707 4.623-4.623 0-2.5523-2.0707-4.623-4.623-4.623Zm0 7.6218c-1.6559 0-2.9988-1.3429-2.9988-2.9988 0-1.6559 1.3429-2.9988 2.9988-2.9988 1.6559 0 2.9988 1.3429 2.9988 2.9988 0 1.6559-1.3429 2.9988-2.9988 2.9988ZM20.8852 10.1926c0 .5976-.4852 1.0793-1.0793 1.0793-.5977 0-1.0793-.4852-1.0793-1.0793 0-.59768.4851-1.07932 1.0793-1.07932.5941 0 1.0793.48516 1.0793 1.07932Z"/>
  </g>
  <defs>
    <clipPath id="a">
      <path fill="#fff" d="M0 0h18v18H0z" transform="translate(6 6)"/>
    </clipPath>
  </defs>
</svg>
